Coordinates
version=1
nRows=26
nColumns=22
inDegrees=yes

Units are S.I. units (second, meters, Newtons, ...)
If the header above contains a line with 'inDegrees', this indicates whether rotational values are in degrees (yes) or radians (no).

endheader
time	pelvis_tilt	pelvis_list	pelvis_rotation	pelvis_tx	pelvis_ty	pelvis_tz	hip_flexion_r	hip_adduction_r	hip_rotation_r	knee_angle_r	ankle_angle_r	subtalar_angle_r	hip_flexion_l	hip_adduction_l	hip_rotation_l	knee_angle_l	ankle_angle_l	subtalar_angle_l	lumbar_extension	lumbar_bending	lumbar_rotation
      0.01000000	     -9.88168842	      2.14250445	    -34.10971485	     -0.97840618	      0.88224384	     -0.37054585	      7.90649544	      2.56453489	      0.75554526	     -4.31776379	     10.84231470	     -3.13809052	      4.94350228	     -5.28668469	     -4.30797146	     -5.75259007	     15.00829529	      2.79262018	      5.60089738	      2.46652199	     11.52698572
      0.02000000	     -9.85818585	      2.13772187	    -34.14391131	     -0.97863458	      0.88228366	     -0.37069967	      7.92102351	      2.55763146	      0.78830820	     -4.34760980	     10.83375776	     -3.14038001	      4.94808912	     -5.27721338	     -4.31689274	     -5.78238814	     15.00575588	      2.78818562	      5.56068672	      2.46317134	     11.49381980
      0.03000000	     -9.82501779	      2.12918568	    -34.19243634	     -0.97891113	      0.88234245	     -0.37086998	      7.93629489	      2.54981291	      0.83163895	     -4.39145427	     10.82430935	     -3.14350863	      4.95280722	     -5.26688128	     -4.33837091	     -5.83355110	     15.01195303	      2.77939147	      5.50526473	      2.45880184	     11.47224588
      0.04000000	     -9.78379552	      2.11640432	    -34.25660306	     -0.97925038	      0.88241269	     -0.37105133	      7.95272951	      2.54460299	      0.88490057	     -4.44500164	     10.81928417	     -3.14824041	      4.95894258	     -5.25707749	     -4.38844893	     -5.90231991	     15.03196367	      2.76259427	      5.42998384	      2.45192445	     11.46942833
      0.05000000	     -9.73615803	      2.10145613	    -34.35778837	     -0.97961347	      0.88248841	     -0.37117702	      7.96437724	      2.54280174	      0.95127739	     -4.49874928	     10.83302679	     -3.15822807	      4.95799957	     -5.25082067	     -4.50694409	     -5.98740060	     15.08452572	      2.72420600	      5.34930824	      2.44610531	     11.51288020
      0.06000000	     -9.70133979	      2.08561926	    -34.42563681	     -0.97999885	      0.88256530	     -0.37138228	      7.98818638	      2.54435415	      1.00120412	     -4.55054324	     10.80913708	     -3.15999075	      4.97134461	     -5.24888253	     -4.51625160	     -6.05555572	     15.08667642	      2.71154547	      5.27204328	      2.44789568	     11.49459423
      0.07000000	     -9.66045459	      2.06513217	    -34.53315280	     -0.98042285	      0.88264705	     -0.37152397	      8.01313276	      2.55376046	      1.05652111	     -4.61454166	     10.80568936	     -3.16442421	      4.99005141	     -5.25505296	     -4.63717246	     -6.16672079	     15.14517877	      2.66975207	      5.18297479	      2.45255335	     11.53433688
      0.08000000	     -9.63191950	      2.05083756	    -34.60421510	     -0.98084740	      0.88272255	     -0.37173330	      8.04591896	      2.55903883	      1.10273830	     -4.66521289	     10.77825694	     -3.16398334	      5.01395011	     -5.25756097	     -4.64346149	     -6.23833517	     15.14497241	      2.65731557	      5.10451812	      2.45627755	     11.51892593
      0.09000000	     -9.61307325	      2.03885790	    -34.71090436	     -0.98129704	      0.88277895	     -0.37187664	      8.09678366	      2.57553894	      1.15615697	     -4.72845423	     10.76531158	     -3.16239353	      5.05898461	     -5.27076370	     -4.76303353	     -6.34895284	     15.19985020	      2.61553098	      5.03859843	      2.46756763	     11.55512791
      0.10000000	     -9.60523355	      2.03699448	    -34.79267343	     -0.98174210	      0.88281968	     -0.37206263	      8.15685734	      2.58483921	      1.21303564	     -4.78010364	     10.73976132	     -3.15942354	      5.11094501	     -5.27835978	     -4.81530349	     -6.42977275	     15.21682877	      2.58580062	      4.98676602	      2.47471624	     11.55893768
      0.11000000	     -9.59081893	      2.03245079	    -34.84755252	     -0.98213225	      0.88287455	     -0.37226774	      8.19430468	      2.58719931	      1.25249765	     -4.81239068	     10.71493103	     -3.15764286	      5.13754843	     -5.27923251	     -4.81645506	     -6.46946890	     15.21255825	      2.57838197	      4.93104862	      2.47826336	     11.52132063
      0.12000000	     -9.57984918	      2.03001655	    -34.90096072	     -0.98252168	      0.88292370	     -0.37246737	      8.23568292	      2.59011127	      1.30193539	     -4.84540263	     10.68632724	     -3.15516973	      5.17258017	     -5.28118698	     -4.83955298	     -6.51810826	     15.21259267	      2.56612548	      4.88004313	      2.48237588	     11.48929633
      0.13000000	     -9.57500298	      2.03286619	    -34.95208768	     -0.98288351	      0.88295912	     -0.37265476	      8.27681935	      2.59114048	      1.36078511	     -4.86671310	     10.65974999	     -3.15254702	      5.21060009	     -5.28139380	     -4.86969689	     -6.56024503	     15.21595145	      2.55140954	      4.84331758	      2.48595704	     11.45643032
      0.14000000	     -9.59265339	      2.05505712	    -35.01884881	     -0.98324704	      0.88295017	     -0.37280798	      8.33799479	      2.59150194	      1.45398970	     -4.86565430	     10.62524604	     -3.14919430	      5.28484569	     -5.28087196	     -4.93894013	     -6.62209486	     15.23192991	      2.51256236	      4.84634302	      2.48744474	     11.46096436
      0.15000000	     -9.58589696	      2.05745044	    -35.05348702	     -0.98353775	      0.88298334	     -0.37298959	      8.36496845	      2.58836038	      1.49411063	     -4.87582694	     10.60764491	     -3.14837837	      5.30179171	     -5.27611547	     -4.94093866	     -6.63019569	     15.22763765	      2.50600055	      4.81758120	      2.49153100	     11.40825707
      0.16000000	     -9.59449272	      2.07563219	    -35.09863618	     -0.98384665	      0.88298808	     -0.37316311	      8.40000504	      2.58099595	      1.57594567	     -4.85189732	     10.56513259	     -3.14580628	      5.35251972	     -5.26926861	     -4.97805651	     -6.66280926	     15.21898289	      2.47522776	      4.81338196	      2.49010478	     11.38870309
      0.17000000	     -9.59910985	      2.08577511	    -35.14323138	     -0.98412185	      0.88299721	     -0.37332526	      8.42876873	      2.57865216	      1.63535898	     -4.83951785	     10.53286621	     -3.14329973	      5.38017847	     -5.26508973	     -5.00748095	     -6.67083043	     15.21465172	      2.44970013	      4.80522021	      2.49667306	     11.36204450
      0.18000000	     -9.59770631	      2.09014880	    -35.17688580	     -0.98436195	      0.88301277	     -0.37350015	      8.44893579	      2.57475752	      1.66576080	     -4.83166383	     10.51410939	     -3.14145788	      5.39049058	     -5.25959231	     -5.02678374	     -6.66139252	     15.21255287	      2.44147122	      4.79002681	      2.50557202	     11.32241919
      0.19000000	     -9.60666656	      2.10098478	    -35.23264409	     -0.98459814	      0.88301445	     -0.37364653	      8.46617385	      2.57358112	      1.74075581	     -4.79078522	     10.46225593	     -3.13357671	      5.40921430	     -5.25591745	     -5.08025206	     -6.65540475	     15.19690180	      2.41313421	      4.79276540	      2.51767202	     11.32528028
      0.20000000	     -9.60609417	      2.10417816	    -35.26869562	     -0.98479884	      0.88302366	     -0.37381468	      8.48188313	      2.57053305	      1.76516519	     -4.77886910	     10.44436300	     -3.13061820	      5.41104718	     -5.25046030	     -5.10819650	     -6.63519115	     15.19684071	      2.40353316	      4.78314907	      2.53210270	     11.29564660
      0.21000000	     -9.60908793	      2.10662738	    -35.32596915	     -0.98498365	      0.88303700	     -0.37395628	      8.48588912	      2.57173059	      1.82893038	     -4.73830534	     10.39593115	     -3.11993131	      5.40881919	     -5.24815772	     -5.16697735	     -6.61433783	     15.17930451	      2.37691226	      4.77987735	      2.55215289	     11.31146851
      0.22000000	     -9.60685591	      2.10784007	    -35.35936342	     -0.98513408	      0.88304859	     -0.37412785	      8.49483959	      2.56700005	      1.84461916	     -4.72396937	     10.38024752	     -3.11643099	      5.40495993	     -5.24087781	     -5.19628625	     -6.59148525	     15.17900344	      2.36875271	      4.77237421	      2.56965008	     11.28603345
      0.23000000	     -9.60245927	      2.10334490	    -35.41001323	     -0.98526152	      0.88307646	     -0.37427470	      8.48463864	      2.56681199	      1.89362523	     -4.68311266	     10.33349404	     -3.10326111	      5.38871351	     -5.23748928	     -5.25032209	     -6.56670802	     15.15787008	      2.34562664	      4.76327456	      2.59408632	     11.30516687
      0.24000000	     -9.59922977	      2.10315314	    -35.43127457	     -0.98538265	      0.88309034	     -0.37447525	      8.49306184	      2.55910802	      1.89008927	     -4.67346012	     10.33265385	     -3.10308449	      5.39332972	     -5.22850697	     -5.25257903	     -6.56044066	     15.15807180	      2.34509197	      4.75400630	      2.61205765	     11.29710552
      0.25000000	     -9.59929068	      2.10346622	    -35.45669805	     -0.98545480	      0.88310667	     -0.37463637	      8.49653999	      2.55371225	      1.89907719	     -4.65537765	     10.30499025	     -3.09761645	      5.38130693	     -5.22020493	     -5.29785024	     -6.52243362	     15.14839923	      2.33702326	      4.75869043	      2.63494391	     11.26168693
      0.26000000	     -9.59556234	      2.10211437	    -35.47234398	     -0.98553612	      0.88312592	     -0.37483317	      8.50201678	      2.54529912	      1.89646007	     -4.64683958	     10.30194364	     -3.09708635	      5.38409529	     -5.21063295	     -5.29988863	     -6.51829543	     15.14594689	      2.33633007	      4.75408634	      2.65489885	     11.25832035
